<?xml version="1.0" encoding="UTF-8" standalone="no"?>
<!DOCTYPE svg PUBLIC "-//W3C//DTD SVG 1.1//EN"
 "http://www.w3.org/Graphics/SVG/1.1/DTD/svg11.dtd">
<!-- Generated by graphviz version 3.0.0 (20220315.2325)
 -->
<!-- Title: Immunopipe Pages: 1 -->
<svg width="331pt" height="514pt"
 viewBox="0.00 0.00 330.50 514.00" xmlns="http://www.w3.org/2000/svg" xmlns:xlink="http://www.w3.org/1999/xlink">
<g id="graph0" class="graph" transform="scale(1 1) rotate(0) translate(4 510)">
<title>Immunopipe</title>
<polygon fill="white" stroke="transparent" points="-4,4 -4,-510 326.5,-510 326.5,4 -4,4"/>
<text text-anchor="middle" x="161.25" y="-490.8" font-family="Helvetica,sans-Serif" font-size="14.00">Immunopipe</text>
<text text-anchor="middle" x="161.25" y="-475.8" font-family="Helvetica,sans-Serif" font-size="14.00"> </text>
<!-- ImmunarchLoading -->
<g id="node1" class="node">
<title>ImmunarchLoading</title>
<g id="a_node1"><a xlink:title="Immuarch &#45; Loading data">
<path fill="none" stroke="black" d="M270,-396C270,-396 175,-396 175,-396 169,-396 163,-390 163,-384 163,-384 163,-372 163,-372 163,-366 169,-360 175,-360 175,-360 270,-360 270,-360 276,-360 282,-366 282,-372 282,-372 282,-384 282,-384 282,-390 276,-396 270,-396"/>
<text text-anchor="middle" x="222.5" y="-374.9" font-family="Helvetica,sans-Serif" font-size="12.00">ImmunarchLoading</text>
</a>
</g>
</g>
<!-- TCellSelection -->
<g id="node2" class="node">
<title>TCellSelection</title>
<path fill="none" stroke="black" d="M148.5,-252C148.5,-252 76.5,-252 76.5,-252 70.5,-252 64.5,-246 64.5,-240 64.5,-240 64.5,-228 64.5,-228 64.5,-222 70.5,-216 76.5,-216 76.5,-216 148.5,-216 148.5,-216 154.5,-216 160.5,-222 160.5,-228 160.5,-228 160.5,-240 160.5,-240 160.5,-246 154.5,-252 148.5,-252"/>
<text text-anchor="middle" x="112.5" y="-230.9" font-family="Helvetica,sans-Serif" font-size="12.00">TCellSelection</text>
</g>
<!-- ImmunarchLoading&#45;&gt;TCellSelection -->
<g id="edge8" class="edge">
<title>ImmunarchLoading&#45;&gt;TCellSelection</title>
<path fill="none" stroke="black" d="M214.49,-359.96C205.29,-341.3 189.06,-310.97 170.5,-288 161.63,-277.02 150.45,-266.25 140.27,-257.32"/>
<polygon fill="black" stroke="black" points="141.99,-255.11 134.1,-252.01 138.34,-259.35 141.99,-255.11"/>
</g>
<!-- IntegratingTCR -->
<g id="node9" class="node">
<title>IntegratingTCR</title>
<g id="a_node9"><a xlink:title="Attach TCR clone information as meta columns to Seurat object">
<path fill="none" stroke="black" d="M244.5,-108C244.5,-108 170.5,-108 170.5,-108 164.5,-108 158.5,-102 158.5,-96 158.5,-96 158.5,-84 158.5,-84 158.5,-78 164.5,-72 170.5,-72 170.5,-72 244.5,-72 244.5,-72 250.5,-72 256.5,-78 256.5,-84 256.5,-84 256.5,-96 256.5,-96 256.5,-102 250.5,-108 244.5,-108"/>
<text text-anchor="middle" x="207.5" y="-86.9" font-family="Helvetica,sans-Serif" font-size="12.00">IntegratingTCR</text>
</a>
</g>
</g>
<!-- ImmunarchLoading&#45;&gt;IntegratingTCR -->
<g id="edge4" class="edge">
<title>ImmunarchLoading&#45;&gt;IntegratingTCR</title>
<path fill="none" stroke="black" d="M221.61,-359.97C219.07,-311.7 211.84,-173.8 208.84,-116.47"/>
<polygon fill="black" stroke="black" points="211.62,-116.15 208.41,-108.31 206.03,-116.44 211.62,-116.15"/>
</g>
<!-- Immunarch -->
<g id="node10" class="node">
<title>Immunarch</title>
<g id="a_node10"><a xlink:title="Exploration of Single&#45;cell and Bulk T&#45;cell/Antibody Immune Repertoires">
<polygon fill="none" stroke="black" points="322.5,-36 246.5,-36 246.5,0 322.5,0 322.5,-36"/>
<text text-anchor="middle" x="284.5" y="-14.9" font-family="Helvetica,sans-Serif" font-size="12.00">Immunarch</text>
</a>
</g>
</g>
<!-- ImmunarchLoading&#45;&gt;Immunarch -->
<g id="edge9" class="edge">
<title>ImmunarchLoading&#45;&gt;Immunarch</title>
<path fill="none" stroke="black" d="M235.65,-359.69C253.85,-333.95 284.5,-283.42 284.5,-235 284.5,-235 284.5,-235 284.5,-161 284.5,-120.11 284.5,-72.61 284.5,-44.22"/>
<polygon fill="black" stroke="black" points="287.3,-44.05 284.5,-36.05 281.7,-44.05 287.3,-44.05"/>
</g>
<!-- SeuratClustering -->
<g id="node7" class="node">
<title>SeuratClustering</title>
<g id="a_node7"><a xlink:title="Cluster all T cells or selected T cells selected by `TCellSelection`.">
<path fill="none" stroke="black" d="M154,-180C154,-180 71,-180 71,-180 65,-180 59,-174 59,-168 59,-168 59,-156 59,-156 59,-150 65,-144 71,-144 71,-144 154,-144 154,-144 160,-144 166,-150 166,-156 166,-156 166,-168 166,-168 166,-174 160,-180 154,-180"/>
<text text-anchor="middle" x="112.5" y="-158.9" font-family="Helvetica,sans-Serif" font-size="12.00">SeuratClustering</text>
</a>
</g>
</g>
<!-- TCellSelection&#45;&gt;SeuratClustering -->
<g id="edge12" class="edge">
<title>TCellSelection&#45;&gt;SeuratClustering</title>
<path fill="none" stroke="black" d="M112.5,-215.7C112.5,-207.39 112.5,-197.28 112.5,-188.14"/>
<polygon fill="black" stroke="black" points="115.3,-188.1 112.5,-180.1 109.7,-188.1 115.3,-188.1"/>
</g>
<!-- SeuratClusteringOfAllCells -->
<g id="node3" class="node">
<title>SeuratClusteringOfAllCells</title>
<g id="a_node3"><a xlink:title="Cluster all cells, including T cells and non&#45;T cells using Seurat">
<path fill="none" stroke="black" d="M149,-324C149,-324 12,-324 12,-324 6,-324 0,-318 0,-312 0,-312 0,-300 0,-300 0,-294 6,-288 12,-288 12,-288 149,-288 149,-288 155,-288 161,-294 161,-300 161,-300 161,-312 161,-312 161,-318 155,-324 149,-324"/>
<text text-anchor="middle" x="80.5" y="-302.9" font-family="Helvetica,sans-Serif" font-size="12.00">SeuratClusteringOfAllCells</text>
</a>
</g>
</g>
<!-- SeuratClusteringOfAllCells&#45;&gt;TCellSelection -->
<g id="edge5" class="edge">
<title>SeuratClusteringOfAllCells&#45;&gt;TCellSelection</title>
<path fill="none" stroke="black" d="M88.41,-287.7C92.29,-279.22 97.02,-268.86 101.26,-259.58"/>
<polygon fill="black" stroke="black" points="103.9,-260.54 104.68,-252.1 98.81,-258.22 103.9,-260.54"/>
</g>
<!-- SeuratClusterStats -->
<g id="node4" class="node">
<title>SeuratClusterStats</title>
<polygon fill="none" stroke="black" points="228,-36 111,-36 111,0 228,0 228,-36"/>
<text text-anchor="middle" x="169.5" y="-14.9" font-family="Helvetica,sans-Serif" font-size="12.00">SeuratClusterStats</text>
</g>
<!-- SampleInfo -->
<g id="node5" class="node">
<title>SampleInfo</title>
<g id="a_node5"><a xlink:title="List sample information and perform statistics">
<polygon fill="none" stroke="black" points="153.5,-468 86.43,-450 153.5,-432 220.57,-450 153.5,-468"/>
<text text-anchor="middle" x="153.5" y="-446.9" font-family="Helvetica,sans-Serif" font-size="12.00">SampleInfo</text>
</a>
</g>
</g>
<!-- SampleInfo&#45;&gt;ImmunarchLoading -->
<g id="edge6" class="edge">
<title>SampleInfo&#45;&gt;ImmunarchLoading</title>
<path fill="none" stroke="black" d="M166.8,-435.5C176.12,-426.05 188.81,-413.18 199.72,-402.11"/>
<polygon fill="black" stroke="black" points="201.94,-403.84 205.57,-396.18 197.96,-399.91 201.94,-403.84"/>
</g>
<!-- SeuratPreparing -->
<g id="node6" class="node">
<title>SeuratPreparing</title>
<g id="a_node6"><a xlink:title="Load, prepare and apply QC to data, using `Seurat`">
<path fill="none" stroke="black" d="M128.5,-396C128.5,-396 48.5,-396 48.5,-396 42.5,-396 36.5,-390 36.5,-384 36.5,-384 36.5,-372 36.5,-372 36.5,-366 42.5,-360 48.5,-360 48.5,-360 128.5,-360 128.5,-360 134.5,-360 140.5,-366 140.5,-372 140.5,-372 140.5,-384 140.5,-384 140.5,-390 134.5,-396 128.5,-396"/>
<text text-anchor="middle" x="88.5" y="-374.9" font-family="Helvetica,sans-Serif" font-size="12.00">SeuratPreparing</text>
</a>
</g>
</g>
<!-- SampleInfo&#45;&gt;SeuratPreparing -->
<g id="edge10" class="edge">
<title>SampleInfo&#45;&gt;SeuratPreparing</title>
<path fill="none" stroke="black" d="M140.66,-435.17C131.85,-425.69 119.97,-412.89 109.77,-401.9"/>
<polygon fill="black" stroke="black" points="111.8,-399.98 104.3,-396.02 107.7,-403.79 111.8,-399.98"/>
</g>
<!-- SeuratPreparing&#45;&gt;SeuratClusteringOfAllCells -->
<g id="edge7" class="edge">
<title>SeuratPreparing&#45;&gt;SeuratClusteringOfAllCells</title>
<path fill="none" stroke="black" d="M86.52,-359.7C85.57,-351.39 84.42,-341.28 83.37,-332.14"/>
<polygon fill="black" stroke="black" points="86.15,-331.73 82.45,-324.1 80.58,-332.37 86.15,-331.73"/>
</g>
<!-- ClusterMarkers -->
<g id="node8" class="node">
<title>ClusterMarkers</title>
<g id="a_node8"><a xlink:title="Markers for clusters of all or selected T cells.">
<polygon fill="none" stroke="black" points="140.5,-108 42.5,-108 42.5,-72 140.5,-72 140.5,-108"/>
<text text-anchor="middle" x="91.5" y="-86.9" font-family="Helvetica,sans-Serif" font-size="12.00">ClusterMarkers</text>
</a>
</g>
</g>
<!-- SeuratClustering&#45;&gt;ClusterMarkers -->
<g id="edge11" class="edge">
<title>SeuratClustering&#45;&gt;ClusterMarkers</title>
<path fill="none" stroke="black" d="M107.31,-143.7C104.79,-135.3 101.72,-125.07 98.96,-115.86"/>
<polygon fill="black" stroke="black" points="101.61,-114.96 96.63,-108.1 96.25,-116.57 101.61,-114.96"/>
</g>
<!-- SeuratClustering&#45;&gt;IntegratingTCR -->
<g id="edge3" class="edge">
<title>SeuratClustering&#45;&gt;IntegratingTCR</title>
<path fill="none" stroke="black" d="M135.98,-143.7C148.52,-134.46 164.09,-122.98 177.5,-113.11"/>
<polygon fill="black" stroke="black" points="179.51,-115.1 184.29,-108.1 176.19,-110.6 179.51,-115.1"/>
</g>
<!-- IntegratingTCR&#45;&gt;SeuratClusterStats -->
<g id="edge1" class="edge">
<title>IntegratingTCR&#45;&gt;SeuratClusterStats</title>
<path fill="none" stroke="black" d="M198.11,-71.7C193.46,-63.14 187.77,-52.66 182.69,-43.3"/>
<polygon fill="black" stroke="black" points="185.06,-41.8 178.79,-36.1 180.14,-44.47 185.06,-41.8"/>
</g>
<!-- IntegratingTCR&#45;&gt;Immunarch -->
<g id="edge2" class="edge">
<title>IntegratingTCR&#45;&gt;Immunarch</title>
<path fill="none" stroke="black" d="M226.53,-71.7C236.51,-62.63 248.86,-51.4 259.58,-41.65"/>
<polygon fill="black" stroke="black" points="261.65,-43.56 265.69,-36.1 257.88,-39.41 261.65,-43.56"/>
</g>
</g>
</svg>
